<svg width="17" height="17" viewBox="0 0 17 17" fill="none" xmlns="http://www.w3.org/2000/svg">
<path d="M8.35938 15.9375C6.50286 15.9375 4.72238 15.2 3.40963 13.8872C2.09687 12.5745 1.35938 10.794 1.35938 8.9375C1.35937 7.08098 2.09687 5.30051 3.40963 3.98775C4.72238 2.675 6.50286 1.9375 8.35938 1.9375C10.2159 1.9375 11.9964 2.675 13.3091 3.98775C14.6219 5.30051 15.3594 7.08098 15.3594 8.9375C15.3594 10.794 14.6219 12.5745 13.3091 13.8872C11.9964 15.2 10.2159 15.9375 8.35938 15.9375ZM8.35938 16.9375C10.4811 16.9375 12.5159 16.0946 14.0162 14.5944C15.5165 13.0941 16.3594 11.0592 16.3594 8.9375C16.3594 6.81577 15.5165 4.78094 14.0162 3.28065C12.5159 1.78035 10.4811 0.9375 8.35938 0.9375C6.23764 0.9375 4.20281 1.78035 2.70252 3.28065C1.20223 4.78094 0.359375 6.81577 0.359375 8.9375C0.359375 11.0592 1.20223 13.0941 2.70252 14.5944C4.20281 16.0946 6.23764 16.9375 8.35938 16.9375V16.9375Z" fill="black"/>
<path d="M9.28933 7.5255L6.99933 7.8125L6.91733 8.1925L7.36733 8.2755C7.66133 8.3455 7.71933 8.4515 7.65533 8.7445L6.91733 12.2125C6.72333 13.1095 7.02233 13.5315 7.72533 13.5315C8.27033 13.5315 8.90333 13.2795 9.19033 12.9335L9.27833 12.5175C9.07833 12.6935 8.78633 12.7635 8.59233 12.7635C8.31733 12.7635 8.21733 12.5705 8.28833 12.2305L9.28933 7.5255ZM9.35933 5.4375C9.35933 5.70272 9.25397 5.95707 9.06643 6.14461C8.8789 6.33214 8.62454 6.4375 8.35933 6.4375C8.09411 6.4375 7.83976 6.33214 7.65222 6.14461C7.46468 5.95707 7.35933 5.70272 7.35933 5.4375C7.35933 5.17228 7.46468 4.91793 7.65222 4.73039C7.83976 4.54286 8.09411 4.4375 8.35933 4.4375C8.62454 4.4375 8.8789 4.54286 9.06643 4.73039C9.25397 4.91793 9.35933 5.17228 9.35933 5.4375Z" fill="black"/>
</svg>
